<?xml version="1.0" encoding="UTF-8" standalone="no"?>
<svg
   version="1.1"
   id="svg2"
   xml:space="preserve"
   width="341.33334"
   height="341.33334"
   viewBox="0 0 341.33334 341.33334"
   sodipodi:docname="logo.svg"
   inkscape:export-filename="logo.png"
   inkscape:export-xdpi="96"
   inkscape:export-ydpi="96"
   inkscape:version="1.4.2 (f4327f4, 2025-05-13)"
   xmlns:inkscape="http://www.inkscape.org/namespaces/inkscape"
   xmlns:sodipodi="http://sodipodi.sourceforge.net/DTD/sodipodi-0.dtd"
   xmlns:xlink="http://www.w3.org/1999/xlink"
   xmlns="http://www.w3.org/2000/svg"
   xmlns:svg="http://www.w3.org/2000/svg"
   xmlns:rdf="http://www.w3.org/1999/02/22-rdf-syntax-ns#"
   xmlns:cc="http://creativecommons.org/ns#"
   xmlns:dc="http://purl.org/dc/elements/1.1/"><metadata
     id="metadata8"><rdf:RDF><cc:Work
         rdf:about=""><dc:format>image/svg+xml</dc:format><dc:type
           rdf:resource="http://purl.org/dc/dcmitype/StillImage" /></cc:Work></rdf:RDF></metadata><defs
     id="defs6"><linearGradient
       id="linearGradient3"
       inkscape:collect="always"><stop
         style="stop-color:#4b96ff;stop-opacity:1;"
         offset="0"
         id="stop3" /><stop
         style="stop-color:#3273eb;stop-opacity:1;"
         offset="0.46418735"
         id="stop4" /></linearGradient><clipPath
       clipPathUnits="userSpaceOnUse"
       id="clipPath18"><path
         d="M 0,256 H 256 V 0 H 0 Z"
         id="path16" /></clipPath><clipPath
       clipPathUnits="userSpaceOnUse"
       id="clipPath26"><path
         d="M 20,224 H 244 V 64 H 20 Z"
         id="path24" /></clipPath><linearGradient
       x1="0"
       y1="0"
       x2="1"
       y2="0"
       gradientUnits="userSpaceOnUse"
       gradientTransform="matrix(0,-160,-160,0,132,224)"
       spreadMethod="pad"
       id="linearGradient36"><stop
         style="stop-opacity:1;stop-color:#000000"
         offset="0"
         id="stop32" /><stop
         style="stop-opacity:1;stop-color:#513c35"
         offset="1"
         id="stop34" /></linearGradient><linearGradient
       x1="0"
       y1="0"
       x2="1"
       y2="0"
       gradientUnits="userSpaceOnUse"
       gradientTransform="matrix(0,-160,-160,0,128,228)"
       spreadMethod="pad"
       id="linearGradient68"><stop
         style="stop-opacity:1;stop-color:#914d36"
         offset="0"
         id="stop64" /><stop
         style="stop-opacity:1;stop-color:#513c35"
         offset="1"
         id="stop66" /></linearGradient><linearGradient
       x1="0"
       y1="0"
       x2="1"
       y2="0"
       gradientUnits="userSpaceOnUse"
       gradientTransform="matrix(0,-160,-160,0,128,228)"
       spreadMethod="pad"
       id="linearGradient88"><stop
         style="stop-opacity:1;stop-color:#914d36"
         offset="0"
         id="stop84" /><stop
         style="stop-opacity:1;stop-color:#513c35"
         offset="1"
         id="stop86" /></linearGradient><clipPath
       clipPathUnits="userSpaceOnUse"
       id="clipPath98"><path
         d="M 0,256 H 256 V 0 H 0 Z"
         id="path96" /></clipPath><linearGradient
       x1="0.070710681"
       y1="-0.645235"
       x2="0.92045045"
       y2="0.57452428"
       gradientUnits="userSpaceOnUse"
       gradientTransform="matrix(0,-40,-40,0,210,56)"
       spreadMethod="pad"
       id="linearGradient144"><stop
         style="stop-opacity:1;stop-color:#ffe690"
         offset="0"
         id="stop136" /><stop
         style="stop-opacity:1;stop-color:#ffe690"
         offset="0.32097089"
         id="stop138" /><stop
         style="stop-opacity:1;stop-color:#ff9e9e"
         offset="0.79393393"
         id="stop140" /><stop
         style="stop-opacity:1;stop-color:#ff9e9e"
         offset="1"
         id="stop142" /></linearGradient><linearGradient
       x1="0"
       y1="0"
       x2="1"
       y2="0"
       gradientUnits="userSpaceOnUse"
       gradientTransform="matrix(0,-48,-48,0,94,56)"
       spreadMethod="pad"
       id="linearGradient164"><stop
         style="stop-opacity:1;stop-color:#914d36"
         offset="0"
         id="stop160" /><stop
         style="stop-opacity:1;stop-color:#513c35"
         offset="1"
         id="stop162" /></linearGradient><linearGradient
       inkscape:collect="always"
       xlink:href="#linearGradient3"
       id="linearGradient4"
       x1="192.6866"
       y1="-11.341046"
       x2="242.89117"
       y2="-68.616699"
       gradientUnits="userSpaceOnUse"
       spreadMethod="pad"
       gradientTransform="matrix(1.0512821,0,0,0.90113635,-10.615668,-4.5237681)" /></defs><sodipodi:namedview
     pagecolor="#ffffff"
     bordercolor="#666666"
     borderopacity="1"
     objecttolerance="10"
     gridtolerance="10"
     guidetolerance="10"
     inkscape:pageopacity="0"
     inkscape:pageshadow="2"
     inkscape:window-width="1920"
     inkscape:window-height="1057"
     id="namedview4"
     inkscape:showpageshadow="0"
     inkscape:pagecheckerboard="0"
     inkscape:deskcolor="#505050"
     inkscape:zoom="2.1213203"
     inkscape:cx="149.19953"
     inkscape:cy="158.15622"
     inkscape:window-x="-8"
     inkscape:window-y="350"
     inkscape:window-maximized="1"
     inkscape:current-layer="g10" /><g
     id="g10"
     inkscape:groupmode="layer"
     inkscape:label="Untitled-1"
     transform="matrix(1.3333333,0,0,-1.3333333,0,341.33333)"><g
       id="g12"><g
         id="g14"
         clip-path="url(#clipPath18)"><g
           id="g20"><g
             id="g22" /><g
             id="g50"><g
               clip-path="url(#clipPath26)"
               opacity="0.300003"
               id="g48"><g
                 id="g46"><g
                   id="g44"><g
                     id="g42"><g
                       id="g40"><path
                         d="M 100,180.564 V 80 H 36 v 32 h 32 c 8.836,0 16,7.163 16,16 v 32 c 0,8.836 -7.164,16 -16,16 H 36 v 32 h 40 c 0,0 8.5,-0.5 8,8 0.5,7.5 -8,8 -8,8 H 36 c -8.836,0 -16,-7.164 -16,-16 v -32 c 0,-8.836 7.164,-16 16,-16 H 68 V 128 H 36 c -1.899,0 -3.721,-0.331 -5.412,-0.938 C 24.415,124.844 20,118.938 20,112 V 80 c 0,-8.837 7.164,-16 16,-16 h 64 c 8.836,0 16,7.163 16,16 v 64 c 0,8.836 7.164,16 16,16 8.837,0 16,-7.164 16,-16 V 80 c 0,-8.837 7.163,-16 16,-16 h 64 c 8.837,0 16,7.163 16,16 v 32 c 0,8.837 -7.163,16 -16,16 h -32 v 32 h 32 c 8.837,0 16,7.164 16,16 v 32 c 0,8.836 -7.163,16 -16,16 h -40 c 0,0 -8.5,-0.5 -8,-8 -0.5,-8.5 8,-8 8,-8 h 40 v -32 h -32 c -8.837,0 -16,-7.164 -16,-16 v -32 c 0,-8.837 7.163,-16 16,-16 h 32 V 80 h -64 v 111.334 c 0,17.437 -13.671,32.176 -31.101,32.654 C 114.815,224.483 100,209.972 100,192 Z"
                         style="fill:url(#linearGradient36);stroke:none"
                         id="path38" /></g></g></g></g></g></g></g></g></g><g
       id="g52"><g
         id="g54"><g
           id="g60"><g
             id="g62"><path
               d="M 96,196 V 184.565 84 H 32 v 32 h 32 c 8.836,0 16,7.163 16,16 v 0 32 c 0,8.836 -7.164,16 -16,16 v 0 H 32 v 32 h 40 c 0,0 8.5,-0.5 8,8 v 0 c 0.5,7.5 -8,8 -8,8 v 0 H 32 c -8.837,0 -16,-7.163 -16,-16 v 0 -32 c 0,-8.836 7.163,-16 16,-16 v 0 H 64 V 132 H 32 c -1.9,0 -3.721,-0.331 -5.411,-0.938 v 0 C 20.415,128.843 16,122.937 16,116 v 0 -32 c 0,-8.837 7.163,-16 16,-16 v 0 h 64 c 8.837,0 16,7.163 16,16 v 0 64 c 0,8.837 7.164,16 16,16 v 0 c 8.837,0 16,-7.163 16,-16 v 0 -64 c 0,-8.837 7.163,-16 16,-16 v 0 h 64 c 8.837,0 16,7.163 16,16 v 0 32 c 0,8.837 -7.163,16 -16,16 v 0 h -32 v 32 h 32 c 8.837,0 16,7.164 16,16 v 0 32 c 0,8.837 -7.163,16 -16,16 v 0 h -40 c 0,0 -8.5,-0.5 -8,-8 v 0 c -0.5,-8.5 8,-8 8,-8 v 0 h 40 v -32 h -32 c -8.837,0 -16,-7.164 -16,-16 v 0 -32 c 0,-8.837 7.163,-16 16,-16 v 0 h 32 V 84 h -64 v 111.334 c 0,17.437 -13.671,32.176 -31.1,32.654 v 0 c -0.299,0.008 -0.601,0.012 -0.898,0.012 v 0 C 110.326,228.002 96,213.675 96,196"
               style="fill:url(#linearGradient68);stroke:none"
               id="path70" /></g></g></g></g><g
       id="g72"><g
         id="g74"><g
           id="g80"><g
             id="g82"><path
               d="m 184,228 c 0,0 -8.5,-0.5 -8,-8 v 0 c -0.5,-8.5 8,-8 8,-8 v 0 h 40 v -32 h -32 c -8.837,0 -16,-7.164 -16,-16 v 0 -32 c 0,-8.837 7.163,-16 16,-16 v 0 h 32 V 84 h -64 v 111.334 c 0,17.437 -13.671,32.176 -31.1,32.654 v 0 c -0.222,0.006 -0.445,0.01 -0.667,0.012 v 0 h -0.472 C 110.196,227.873 96,213.595 96,196 V 196 184.565 84 H 32 v 32 h 32 c 8.836,0 16,7.163 16,16 v 0 32 c 0,8.836 -7.164,16 -16,16 v 0 H 32 v 32 h 40 c 0,0 8.5,-0.5 8,8 v 0 c 0.5,7.5 -8,8 -8,8 v 0 H 32 c -8.837,0 -16,-7.163 -16,-16 v 0 -32 c 0,-8.836 7.163,-16 16,-16 v 0 H 64 V 132 H 32 c -1.9,0 -3.721,-0.331 -5.411,-0.938 v 0 C 20.415,128.843 16,122.937 16,116 v 0 -32 c 0,-8.837 7.163,-16 16,-16 v 0 h 64 c 8.837,0 16,7.163 16,16 v 0 64 c 0,8.837 7.164,16 16,16 v 0 c 8.837,0 16,-7.163 16,-16 v 0 -64 c 0,-8.837 7.163,-16 16,-16 v 0 h 64 c 8.837,0 16,7.163 16,16 v 0 32 c 0,8.837 -7.163,16 -16,16 v 0 h -32 v 32 h 32 c 8.837,0 16,7.164 16,16 v 0 32 c 0,8.837 -7.163,16 -16,16 v 0 z"
               style="fill:url(#linearGradient88);stroke:none"
               id="path90" /></g></g></g></g><g
       id="g148"
       transform="matrix(0.91485576,0,0,0.91485576,-10.403246,2.79354)"><g
         id="g150"><g
           id="g156"><g
             id="g158"><path
               d="M 129.504,52.685 V 20.472 c 0,-2.086 2.011,-3.13 4.024,-3.13 v 0 c 2.012,0 4.024,1.044 4.024,3.13 v 0 32.213 c 0,2.18 -2.012,3.27 -4.024,3.27 v 0 c -2.012,0 -4.024,-1.09 -4.024,-3.27 M 24.081,54.949 c -3.387,0 -5.083,-1.726 -5.083,-5.174 v 0 -26.652 c 0,-3.45 1.696,-5.173 5.083,-5.173 v 0 H 37.7 c 9.828,0 14.299,3.782 14.299,12.095 v 0 c 0,3.613 -1.836,7.156 -4.659,8.605 v 0 c 2.072,1.299 2.966,3.591 2.966,6.131 v 0 c 0,6.575 -4.189,10.168 -13.455,10.168 v 0 z m 3.069,-8.041 h 9.951 c 3.648,0 4.999,-0.624 4.999,-2.334 v 0 c 0,-1.666 -1.048,-2.625 -4.25,-2.625 v 0 h -10.7 z m 0,-12.858 h 10.6 c 4.2,0 6.049,-1.308 6.049,-4.005 v 0 c 0,-2.795 -1.849,-4.048 -6.049,-4.048 v 0 h -10.6 z m 126.734,10.354 c 0,2.155 -1.789,3.209 -3.577,3.209 v 0 c -1.834,0 -3.669,-1.101 -3.669,-3.209 v 0 -23.177 c 0,-2.207 2.023,-3.36 3.999,-3.36 v 0 c 1.929,0 3.812,1.056 3.812,3.216 v 0 12.194 c 0,4.367 2.198,6.912 6.071,6.912 v 0 c 2.794,0 4.305,-1.969 4.305,-4.991 v 0 -14.162 c 0,-2.113 1.976,-3.169 3.907,-3.169 v 0 c 1.975,0 3.905,1.056 3.905,3.169 v 0 14.303 c 0,8.73 -4.001,12.61 -11.774,12.61 v 0 c -2.549,0 -5.884,-1.342 -6.979,-3.545 m -52.704,0.814 c 0,3.259 -7.801,3.259 -7.801,0 v 0 -32.494 c 0,-2.04 2.058,-3.06 4.117,-3.06 v 0 c 2.058,0 4.118,1.02 4.118,3.06 v 0 6.237 c 1.412,-1.438 4.329,-2.012 6.212,-2.012 v 0 c 7.812,0 13.553,5.605 13.553,15.526 v 0 c 0,9.917 -5.741,15.474 -13.553,15.474 v 0 c -2.495,0 -5.693,-1.15 -6.646,-2.731 m 0.199,-12.743 c 0,4.916 2.541,7.667 5.647,7.667 v 0 c 3.905,0 6.446,-2.651 6.446,-7.667 v 0 c 0,-5.018 -2.541,-7.718 -6.446,-7.718 v 0 c -3.152,0 -5.647,2.801 -5.647,7.718 M 58.308,31.878 c 0,-8.539 5.506,-14.929 14.145,-14.929 v 0 c 7.154,0 11.329,2.537 12.866,6.11 v 0 c 0.143,0.374 0.24,0.749 0.24,1.128 v 0 c 0,2.047 -2.448,3.524 -4.513,3.524 v 0 c -1.007,0 -1.919,-0.382 -2.353,-1.191 v 0 c -0.623,-1.189 -2.88,-2.427 -6.095,-2.427 v 0 c -3.025,0 -6.145,2.38 -6.241,4.954 v 0 h 15.314 c 3.408,0 4.895,1.64 4.895,4.519 v 0 0.398 c -0.335,7.583 -6.383,12.985 -14.017,12.985 v 0 c -8.215,0 -14.241,-5.59 -14.241,-15.071 m 14.29,8.071 c 3.215,0 5.375,-1.798 6.001,-4.002 v 0 H 66.406 c 0.672,2.158 2.639,4.002 6.192,4.002"
               style="fill:url(#linearGradient164);stroke:none"
               id="path166" /></g></g></g></g><g
       id="g1"
       transform="matrix(1.3929236,-0.37451139,-0.37451139,-1.3929236,93.531145,255.75994)"><path
         d="M 15.8,52.1 C 9,47.7 6.3,30.6 8.5,22.9 10.1,17.1 16.3,8.6 21.9,6.4 26.6,4.5 37.4,4.5 42,6.4 c 5.6,2.2 11.8,10.7 13.4,16.5 2.2,7.8 0.5,24.8 -6.2,29.2 -14.2,9.2 -19.2,9.2 -33.4,0"
         fill="#f5d1ac"
         id="path1" /><path
         d="m 5.1,24.7 c 3.6,7.9 4.5,8.2 7.9,-1.2 1.8,-5 0.5,-8 2.7,-11.2 1.2,-1.8 3.9,-4.8 3.9,-4.8 0,0 -21.3,2.2 -14.5,17.2"
         fill="#423223"
         id="path2" /><path
         d="m 14.2,7.2 c -5.4,3.5 -16.9,2.1 -10.1,17 3.6,7.9 4.5,8.2 7.9,-1.2 1.8,-5 0.5,-8 2.7,-11.2 1.2,-1.8 4.9,-4.3 4.9,-4.3 0,0 -1.7,-2.7 -5.4,-0.3"
         fill="#947151"
         id="path3" /><path
         d="m 58.9,24.6 c -3.6,7.9 -4.5,8.2 -7.9,-1.2 -1.8,-5 -0.5,-8 -2.7,-11.2 -1.2,-1.8 -3.9,-4.8 -3.9,-4.8 0,0 21.3,2.3 14.5,17.2"
         fill="#423223"
         id="path4" /><path
         d="m 49.8,7.2 c 5.4,3.5 16.9,2.1 10.1,17 C 56.3,32.1 55.4,32.4 52,23 50.2,18 51.5,15 49.3,11.8 48.1,10 44.4,7.5 44.4,7.5 c 0,0 1.7,-2.7 5.4,-0.3"
         fill="#947151"
         id="path5" /><circle
         cx="17.700001"
         cy="30.700001"
         fill="#ffffff"
         r="6"
         id="circle5" /><circle
         cx="16.200001"
         cy="30.700001"
         fill="#3e4347"
         r="4.5"
         id="circle6" /><circle
         cx="46.299999"
         cy="30.700001"
         fill="#ffffff"
         r="6"
         id="circle7" /><circle
         cx="47.799999"
         cy="30.700001"
         fill="#3e4347"
         r="4.5"
         id="circle8" /><path
         d="m 21.7,48.8 4.6,4.9 c 2.8,2.9 8.5,2.9 11.3,0 l 4.7,-4.9 -4.8,-5 h -11 l -4.8,5"
         fill="#7d644b"
         id="path8" /><path
         d="m 32,39.6 c 0,0 -4.9,7 -4.3,10.3 0.8,4.8 7.7,4.8 8.6,0 C 36.9,46.6 32,39.6 32,39.6"
         fill="#f15a61"
         id="path9" /><path
         d="M 32,51.7 33.1,45 h -2.2 l 1.1,6.7"
         fill="#ba454b"
         id="path10" /><path
         fill="#423223"
         d="m 27,41.5 h 10 v 4.6 H 27 Z"
         id="path11" /><path
         d="m 47.8,42.6 -7.1,-7.5 c -4.3,-4.5 -13.1,-4.5 -17.4,0 l -7.1,7.5 c -2,2.1 -2,5.6 0,7.7 2,2.1 5.3,2.1 7.3,0 l 7.1,-7.5 c 0.7,-0.7 2,-0.7 2.7,0 l 7.1,7.5 c 2,2.1 5.3,2.1 7.3,0 2.2,-2.1 2.2,-5.6 0.1,-7.7"
         fill="#947151"
         id="path12" /><g
         fill="#3e4347"
         id="g19"><path
           d="m 26.1,35.7 c 0,-2.6 2.6,-3.1 5.9,-3.1 3.3,0 5.9,0.5 5.9,3.1 0,2.1 -4.7,3.9 -5.9,3.9 -1.2,0 -5.9,-1.9 -5.9,-3.9"
           id="path13" /><path
           d="M 23.31,39.012 24.299,38.02 25.29,39.009 24.301,40 Z"
           id="path14" /><path
           d="m 20.947,41.811 0.989,-0.991 0.99,0.989 -0.988,0.99 z"
           id="path15" /><path
           d="m 24.125,42.763 0.989,-0.991 0.991,0.988 -0.988,0.992 z"
           id="path16-0" /><path
           d="M 38.703,38.988 39.695,38 l 0.988,0.991 -0.991,0.989 z"
           id="path17" /><path
           d="m 41.128,41.762 0.992,-0.989 0.988,0.991 -0.991,0.989 z"
           id="path18" /><path
           d="m 37.947,42.811 0.991,-0.988 0.989,0.99 -0.991,0.99 z"
           id="path19" /></g></g><g
       id="g6"
       transform="translate(-3.5355341)"><rect
         style="fill:url(#linearGradient4);fill-opacity:1;stroke-width:0.926291"
         id="rect3"
         width="101.46982"
         height="45.116661"
         x="156.27061"
         y="-58.648125"
         transform="scale(1,-1)"
         ry="7.9185557" /><text
         xml:space="preserve"
         style="font-style:normal;font-variant:normal;font-weight:bold;font-stretch:normal;font-size:48px;font-family:Poppins;-inkscape-font-specification:'Poppins Bold';text-align:center;writing-mode:lr-tb;direction:ltr;text-anchor:middle;fill:#ffffff;stroke-width:0.75"
         x="206.12166"
         y="-19.826317"
         id="text3"
         transform="scale(1,-1)"
         sodipodi:insensitive="true"><tspan
           id="tspan3"
           style="font-style:normal;font-variant:normal;font-weight:bold;font-stretch:normal;font-size:48px;font-family:Poppins;-inkscape-font-specification:'Poppins Bold';fill:#ffffff;stroke-width:0.75"
           x="206.12166"
           y="-19.826317"
           sodipodi:role="line">s&amp;x</tspan></text></g></g></svg>
